<?xml version="1.0"?>
<svg xmlns="http://www.w3.org/2000/svg" xmlns:xlink="http://www.w3.org/1999/xlink" viewBox="0 0 597.87 294.23"
	 style="enable-background:new 0 0 597.87 294.23;" xml:space="preserve">
<style type="text/css">
	.st0{fill:#003A40;}
	.st1{fill-rule:evenodd;clip-rule:evenodd;fill:#003A40;}
</style>
 <path class="st0" d="M177.37,117.69V58.65h-59.05v22.37c0,4.06-3.29,7.35-7.35,7.35H59.27v58.85h51.69 c4.06,0,7.35,3.29,7.35,7.35v14.82c0,4.06-3.29,7.35-7.35,7.35H59.27v59.05h59.05v-22.17c0-4.06,3.29-7.35,7.35-7.35h51.69 v-59.05h-51.69c-4.06,0-7.35-3.29-7.35-7.35v-14.82c0-4.06,3.29-7.35,7.35-7.35H177.37z"/>
 <path class="st1" d="M396.66,208.22h-7.73c-23.37,0-42.38-19.02-42.38-42.38v-7.73c0-23.37,19.01-42.38,42.38-42.38h7.73 c23.37,0,42.38,19.01,42.38,42.38v7.73C439.03,189.2,420.02,208.22,396.66,208.22z M388.93,137.6 c-11.31,0-20.51,9.2-20.51,20.51v7.73c0,11.31,9.2,20.51,20.51,20.51h7.73c11.31,0,20.51-9.21,20.51-20.51v-7.73 c0-11.31-9.2-20.51-20.51-20.51H388.93z"/>
 <path class="st0" d="M224.98,206.43c-4.09-1.19-19.29-6.31-20.39-25.77h25.31c0.73,2.87,2,5.06,4.01,6.54 c2.13,1.57,4.98,2.27,8.63,2.27h9.35c3.35,0,6.06-0.71,7.95-2.19c1.92-1.49,2.9-3.69,2.9-6.42c0-2.99-1.33-4.99-3.21-6.26 c-1.84-1.23-4.17-1.76-6.22-1.96l-18.87-1.88h0c-8.7-0.71-15.46-3.53-20.04-8.08c-4.57-4.54-7.05-10.86-7.05-18.74 c0-20.35,17.56-25.38,21.52-26.47c3.98-1.09,8.95-1.65,16.28-1.65c14.45,0,22.02,2.39,28.72,7.02 c6.67,4.61,10.37,11.43,10.97,20.38h-25.25c-0.54-2.8-1.72-4.94-3.66-6.4c-2.08-1.55-4.92-2.22-8.52-2.22h-6.68 c-3.1,0-5.67,0.74-7.48,2.2c-1.83,1.47-2.81,3.62-2.81,6.22c0,2.39,0.86,4.36,2.54,5.81c1.66,1.42,4.06,2.27,7.07,2.6h0 l19.06,1.88h0c8.16,0.66,14.83,3.21,19.36,7.28c4.99,4.5,7.55,10.84,7.55,18.97c0,9.73-3.08,16.83-9.71,21.53 c-6.69,4.75-17.1,7.15-31.96,7.15C234.78,208.24,229.11,207.63,224.98,206.43z"/>
 <path class="st0" d="M515.48,88.01h23.57v23.49h-20.47c-1.72,0-3.11-1.39-3.11-3.11V88.01z"/>
 <path class="st0" d="M513.85,139.82h-4.74v-22.03h29.95v88.48h-22.1v-63.33C516.96,141.21,515.56,139.82,513.85,139.82z"/>
 <path class="st0" d="M470.56,142.93v63.34h-22.09v-57.82c0-16.93,13.73-30.66,30.66-30.66h22.76v22.04h-28.23 C471.95,139.82,470.56,141.21,470.56,142.93z"/>
 <path class="st0" d="M340.05,184.4h-13.42c-5.59,0-10.13-4.54-10.13-10.13l0.01-31.34c0-1.72,1.39-3.11,3.11-3.11h20.44v-22.04 h-20.44c-1.72,0-3.11-1.4-3.11-3.11l-0.01-20.47h-22.1v80.06c0,17.67,14.32,32,32,32h13.65V184.4z"/>
</svg>